<?xml version="1.0" encoding="iso-8859-1"?>
<!-- Generator: Adobe Illustrator 19.0.0, SVG Export Plug-In . SVG Version: 6.00 Build 0)  -->
<svg version="1.1" id="Layer_1" xmlns="http://www.w3.org/2000/svg" xmlns:xlink="http://www.w3.org/1999/xlink" x="0px" y="0px"
	 viewBox="0 0 512 512" style="enable-background:new 0 0 512 512;" xml:space="preserve">
<circle style="fill:#E0E0E2;" cx="256" cy="256" r="248.686"/>
<path style="fill:#D8D7DA;" d="M104.68,255.981c0-105.405,56.246-197.668,140.356-248.431
	C112.803,13.316,7.364,122.328,7.364,255.981s105.44,242.665,237.672,248.431C160.926,453.65,104.68,361.387,104.68,255.981z"/>
<path style="fill:#9CDD05;" d="M437.092,137.925C388.567,176.718,324.255,198.082,256,198.082
	c-68.254,0-132.567-21.364-181.092-60.157c-7.975-6.375-15.373-13.097-22.174-20.124c-3.765-3.891-10.175-3.268-13.076,1.304
	C14.55,158.699,0,205.646,0,256s14.55,97.302,39.659,136.894c2.9,4.572,9.31,5.195,13.076,1.304
	c6.8-7.027,14.199-13.749,22.174-20.124c48.525-38.793,112.839-60.157,181.092-60.157c68.255,0,132.568,21.364,181.092,60.157
	c7.975,6.375,15.373,13.097,22.174,20.124c3.766,3.891,10.175,3.268,13.076-1.304C497.45,353.302,512,306.354,512,256
	s-14.55-97.302-39.659-136.894c-2.9-4.572-9.31-5.195-13.076-1.304C452.465,124.829,445.067,131.551,437.092,137.925z"/>
<path style="fill:#91CC04;" d="M118.837,166.174c-15.694-8.011-30.425-17.453-43.93-28.249
	c-7.975-6.375-15.373-13.097-22.174-20.124c-3.765-3.891-10.175-3.268-13.076,1.304C14.55,158.699,0,205.647,0,256
	c0,50.354,14.55,97.302,39.659,136.894c2.9,4.572,9.31,5.195,13.076,1.304c6.8-7.027,14.199-13.749,22.174-20.124
	c13.504-10.796,28.235-20.238,43.93-28.249c-9.208-28.284-14.204-58.469-14.204-89.826S109.63,194.459,118.837,166.174z"/>
<path style="fill:#9CDD05;" d="M70.614,79.474c-3.007,3.158-3.036,8.103-0.13,11.353c41.028,45.871,108.888,75.909,185.514,75.909
	s144.486-30.038,185.514-75.909c2.907-3.251,2.879-8.195-0.13-11.353C394.756,30.518,328.946,0,256,0S117.243,30.518,70.614,79.474z
	"/>
<path style="fill:#91CC04;" d="M258.279,0.03C257.518,0.023,256.762,0,256,0C183.054,0,117.243,30.518,70.614,79.474
	c-3.007,3.158-3.036,8.103-0.13,11.353c16.129,18.033,36.42,33.604,59.745,45.88C156.657,78.233,201.923,30.106,258.279,0.03z"/>
<path style="fill:#9CDD05;" d="M441.386,432.526c3.007-3.158,3.036-8.103,0.13-11.353c-41.028-45.871-108.888-75.909-185.514-75.909
	s-144.486,30.038-185.514,75.909c-2.907,3.251-2.879,8.195,0.13,11.353C117.243,481.482,183.054,512,256,512
	S394.756,481.482,441.386,432.526z"/>
<g>
	<path style="fill:#91CC04;" d="M130.23,375.293c-23.325,12.276-43.616,27.847-59.745,45.88c-2.907,3.251-2.879,8.195,0.13,11.353
		C117.243,481.482,183.054,512,256,512c0.762,0,1.518-0.023,2.279-0.03C201.923,481.894,156.657,433.767,130.23,375.293z"/>
	<path style="fill:#91CC04;" d="M355.137,449.545c-2.134-3.765-0.772-8.551,3.002-10.668c5.602-3.142,11.126-6.584,16.42-10.231
		c3.562-2.454,8.445-1.557,10.899,2.007c2.457,3.564,1.557,8.444-2.007,10.899c-5.687,3.918-11.625,7.617-17.644,10.993
		C364.593,453.228,358.752,455.923,355.137,449.545z"/>
	<path style="fill:#91CC04;" d="M256.003,481.177c-4.328,0-7.837-3.509-7.837-7.837s3.509-7.837,7.837-7.837
		c26.676,0,52.676-4.969,77.279-14.768c4.021-1.6,8.58,0.359,10.18,4.38c1.601,4.021-0.36,8.579-4.38,10.18
		C312.626,475.834,284.675,481.177,256.003,481.177z"/>
	<circle style="fill:#91CC04;" cx="391.576" cy="240.358" r="12.57"/>
	<circle style="fill:#91CC04;" cx="308.663" cy="268.925" r="12.57"/>
	<circle style="fill:#91CC04;" cx="321.233" cy="95.943" r="12.57"/>
	<path style="fill:#91CC04;" d="M370.488,302.958c-2.068,0-4.086-0.836-5.548-2.299c-1.453-1.463-2.288-3.479-2.288-5.538
		c0-2.069,0.836-4.086,2.288-5.548c1.462-1.452,3.479-2.288,5.548-2.288c2.06,0,4.075,0.836,5.538,2.288
		c1.453,1.463,2.299,3.479,2.299,5.548c0,2.058-0.846,4.075-2.299,5.538C374.565,302.122,372.548,302.958,370.488,302.958z"/>
	<path style="fill:#91CC04;" d="M250.462,258.296c-2.068,0-4.086-0.836-5.548-2.299c-1.453-1.463-2.288-3.48-2.288-5.538
		c0-2.069,0.836-4.086,2.288-5.548c1.462-1.452,3.48-2.288,5.548-2.288c2.059,0,4.075,0.836,5.538,2.288
		c1.453,1.463,2.299,3.48,2.299,5.548c0,2.058-0.846,4.075-2.299,5.538C254.538,257.459,252.522,258.296,250.462,258.296z"/>
	<path style="fill:#91CC04;" d="M268.013,124.184c-2.068,0-4.086-0.836-5.548-2.299c-1.453-1.463-2.288-3.48-2.288-5.538
		c0-2.069,0.836-4.086,2.288-5.548c1.462-1.452,3.48-2.288,5.548-2.288c2.06,0,4.075,0.836,5.538,2.288
		c1.453,1.463,2.299,3.48,2.299,5.548c0,2.058-0.846,4.075-2.299,5.538C272.088,123.348,270.073,124.184,268.013,124.184z"/>
	<path style="fill:#91CC04;" d="M275.85,58.462c-2.068,0-4.086-0.836-5.548-2.299c-1.453-1.463-2.288-3.48-2.288-5.538
		c0-2.069,0.836-4.086,2.288-5.548c1.462-1.452,3.479-2.288,5.548-2.288c2.06,0,4.075,0.836,5.538,2.288
		c1.453,1.463,2.299,3.48,2.299,5.548c0,2.058-0.846,4.075-2.299,5.538C279.925,57.625,277.909,58.462,275.85,58.462z"/>
</g>
<g>
</g>
<g>
</g>
<g>
</g>
<g>
</g>
<g>
</g>
<g>
</g>
<g>
</g>
<g>
</g>
<g>
</g>
<g>
</g>
<g>
</g>
<g>
</g>
<g>
</g>
<g>
</g>
<g>
</g>
</svg>
